Coordinates
version=1
nRows=26
nColumns=24
inDegrees=yes

Units are S.I. units (second, meters, Newtons, ...)
Angles are in degrees.

endheader
time	pelvis_tilt	pelvis_list	pelvis_rotation	pelvis_tx	pelvis_ty	pelvis_tz	hip_flexion_r	hip_adduction_r	hip_rotation_r	knee_angle_r	ankle_angle_r	subtalar_angle_r	mtp_angle_r	hip_flexion_l	hip_adduction_l	hip_rotation_l	knee_angle_l	ankle_angle_l	subtalar_angle_l	mtp_angle_l	lumbar_extension	lumbar_bending	lumbar_rotation
      0.52900000	     -5.55735227	      0.16910699	     -0.83812593	     -0.76674607	      1.05022685	      0.28535682	     27.90893224	      0.23876304	     -6.08716802	     -6.87198138	      6.43195862	      2.30789967	      8.83083898	     -7.42716811	      1.74694009	      2.06218393	     -9.87594851	     19.88318456	      6.76446827	      0.49974606	     -4.02849619	      0.46304402	     -4.62668066
      0.53316667	     -5.48383405	      0.13707637	     -0.74766816	     -0.76052604	      1.04941142	      0.28558298	     27.81011412	      0.30881828	     -5.89379826	     -6.99255266	      6.37573205	      2.09346519	      8.83273853	     -7.56113530	      1.68624909	      2.01159431	    -10.53155973	     20.06270518	      6.97325250	      0.54037520	     -4.07438097	      0.54270048	     -4.67353449
      0.53733333	     -5.40175221	      0.09706619	     -0.66105854	     -0.75427124	      1.04865394	      0.28580774	     27.70208722	      0.38765167	     -5.68135802	     -7.19088274	      6.28354444	      1.82589420	      8.83907560	     -7.67677472	      1.61209411	      1.90829820	    -11.24645988	     20.22964183	      7.24645048	      0.62059957	     -4.12705819	      0.63836484	     -4.69475289
      0.54150000	     -5.30577245	      0.05873201	     -0.57088971	     -0.74801931	      1.04796057	      0.28604010	     27.58122657	      0.46406719	     -5.45682184	     -7.46089629	      6.16081914	      1.51180600	      8.84794229	     -7.76891009	      1.53280137	      1.77740651	    -12.03778481	     20.38551943	      7.56936485	      0.73944203	     -4.19396674	      0.73497565	     -4.72066678
      0.54566667	     -5.20151195	      0.00760837	     -0.48579898	     -0.74173278	      1.04731524	      0.28627332	     27.45292640	      0.55439264	     -5.22338446	     -7.80042886	      5.99358734	      1.14934565	      8.86039374	     -7.84703995	      1.43377936	      1.60874011	    -12.88361142	     20.51587194	      7.94079040	      0.90261901	     -4.26634956	      0.85312380	     -4.73603734
      0.54983333	     -5.11852048	     -0.04155614	     -0.40250443	     -0.73541506	      1.04667133	      0.28652390	     27.35012329	      0.64403980	     -4.98160670	     -8.20487442	      5.78872641	      0.74822083	      8.87687785	     -7.86479389	      1.32712935	      1.39488894	    -13.80470357	     20.62684934	      8.37293439	      1.11439781	     -4.30567704	      0.97166895	     -4.74575366
      0.55400000	     -5.00078556	     -0.10232021	     -0.32034534	     -0.72909258	      1.04613244	      0.28677912	     27.20793120	      0.74516749	     -4.73359783	     -8.65581562	      5.54190459	      0.31412702	      8.89504253	     -7.88433222	      1.19833034	      1.14194138	    -14.79613772	     20.70315552	      8.85720015	      1.37653824	     -4.39188432	      1.10745869	     -4.74992823
      0.55816667	     -4.91895680	     -0.15649436	     -0.23899447	     -0.72274150	      1.04557042	      0.28705192	     27.10969500	      0.84029609	     -4.48254792	     -9.16510316	      5.26441230	     -0.14913643	      8.91363443	     -7.82934807	      1.06503551	      0.85395615	    -15.86090743	     20.74819908	      9.38915807	      1.68395529	     -4.42095231	      1.23387982	     -4.74747675
      0.56233333	     -4.78515917	     -0.22523522	     -0.16136210	     -0.71640048	      1.04513540	      0.28733986	     26.95446121	      0.95120514	     -4.23629582	     -9.70894716	      4.95446887	     -0.62639628	      8.92952236	     -7.79728774	      0.90299518	      0.51776588	    -16.98891790	     20.75965134	      9.98044320	      2.03384865	     -4.52332730	      1.37984722	     -4.73580753
      0.56650000	     -4.68335601	     -0.29384469	     -0.08573550	     -0.71003897	      1.04469356	      0.28765000	     26.84018114	      1.06254258	     -3.99664420	    -10.30086827	      4.61660936	     -1.12073731	      8.94140619	     -7.68743521	      0.72839680	      0.16125995	    -18.20244571	     20.71894949	     10.59993164	      2.44281806	     -4.57337529	      1.52967967	     -4.72210202
      0.57066667	     -4.57064154	     -0.35028271	     -0.01608922	     -0.70369637	      1.04431051	      0.28798752	     26.72543045	      1.16284472	     -3.75917054	    -10.94095660	      4.26623516	     -1.62298525	      9.08441407	     -7.56594715	      0.55935998	     -0.17746962	    -19.43991884	     20.51966364	     11.12715457	      7.14501009	     -4.65112178	      1.66195107	     -4.64377940
      0.57483333	     -4.46254719	     -0.41756592	      0.06715418	     -0.69734568	      1.04396558	      0.28832389	     26.61404752	      1.26577595	     -3.56780238	    -11.60360076	      3.92433169	     -2.07005779	      9.06866785	     -7.38137862	      0.35364721	     -0.58330413	    -20.79904774	     20.36632848	     11.83139249	      7.22818645	     -4.70688520	      1.80818115	     -4.67937815
      0.57900000	     -4.36057948	     -0.48188026	      0.13672204	     -0.69101424	      1.04364265	      0.28871739	     26.51610945	      1.37327807	     -3.35501395	    -12.29484202	      3.57741615	     -2.54458631	      9.04477932	     -7.15564363	      0.13834172	     -0.99871913	    -22.21710649	     20.15377333	     12.53398215	      7.37527540	     -4.76396446	      1.94370621	     -4.63748865
      0.58316667	     -4.25805418	     -0.55199014	      0.20613809	     -0.68468537	      1.04336742	      0.28911998	     26.42013360	      1.48440765	     -3.16283600	    -13.00858359	      3.24368993	     -3.00235062	      9.01178751	     -6.89365912	     -0.09737501	     -1.41795657	    -23.69785603	     19.86800249	     13.23155320	      7.58238948	     -4.81714358	      2.09312828	     -4.60325624
      0.58733333	     -4.16358576	     -0.62521535	      0.26769804	     -0.67836601	      1.04314335	      0.28956464	     26.32739541	      1.60621683	     -2.94293955	    -13.72115430	      2.88139600	     -3.52201962	      8.55436171	     -6.59722617	     -0.34482713	     -1.80696926	    -25.20406242	     19.40302984	     13.82773762	     10.87849693	     -4.86437745	      2.25163602	     -4.52556461
      0.59150000	     -4.05456922	     -0.68393821	      0.33848654	     -0.67209095	      1.04295542	      0.29001151	     26.24540065	      1.69693494	     -2.83020699	    -14.50270565	      2.68996572	     -3.80316900	      8.53830642	     -6.26463170	     -0.59943905	     -2.22403257	    -26.80274535	     18.96451302	     14.53476115	     10.95747563	     -4.93722298	      2.37442988	     -4.51771995
      0.59566667	     -3.95911375	     -0.75293179	      0.40230666	     -0.66582281	      1.04280078	      0.29048614	     26.16594216	      1.80489672	     -2.69026303	    -15.26368729	      2.46608813	     -4.16232685	      8.50651418	     -5.88908102	     -0.87389465	     -2.61632344	    -28.43999391	     18.42550688	     15.18098405	     11.09030293	     -4.98869793	      2.51930235	     -4.47308107
      0.59983333	     -3.86892383	     -0.81120777	      0.46922639	     -0.65958416	      1.04268442	      0.29096827	     26.09320636	      1.89760874	     -2.57237996	    -16.03459936	      2.30952795	     -4.46526851	      8.46845997	     -5.48104004	     -1.14286582	     -2.95865592	    -30.10213299	     17.77244575	     15.79440358	     11.24309863	     -5.04088032	      2.65821701	     -4.42472975
      0.60400000	     -3.78059919	     -0.88650449	      0.51895847	     -0.65338113	      1.04259201	      0.29148194	     26.02352039	      2.01412564	     -2.45704316	    -16.80915201	      2.17476220	     -4.77889530	      8.39714250	     -5.03297357	     -1.44103439	     -3.31422570	    -31.82941401	     17.11470439	     16.33462122	     11.52059018	     -5.10486795	      2.82983959	     -4.37288192
      0.60816667	     -3.68472471	     -0.95827362	      0.58387304	     -0.64718968	      1.04257749	      0.29199096	     25.92704052	      2.11736216	     -2.38697772	    -17.55162606	      2.13036368	     -4.98533883	      8.32938907	     -4.56545397	     -1.74575662	     -3.62656168	    -33.57577647	     16.31243797	     16.83632540	     11.76664068	     -5.15483174	      2.95162908	     -4.32872021
      0.61233333	     -3.60695875	     -1.02038090	      0.64601710	     -0.64103906	      1.04258339	      0.29250103	     25.84436393	      2.21121396	     -2.31666159	    -18.28830363	      2.15579244	     -5.18395325	      7.10184820	     -4.05702481	     -2.03490878	     -3.87303380	    -35.32284858	     15.33921732	     17.18413899	     15.98537146	     -5.20475592	      3.09037427	     -4.26569049
      0.61650000	     -3.53543809	     -1.08403225	      0.70237388	     -0.63491084	      1.04260262	      0.29301067	     25.76549086	      2.30080613	     -2.29492230	    -19.02020407	      2.24579382	     -5.27970951	      7.09747430	     -3.51364889	     -2.33263802	     -4.11515010	    -37.10741305	     14.39794290	     17.54937361	     16.00441519	     -5.24198759	      3.23002761	     -4.22887609
      0.62066667	     -3.44699885	     -1.16161293	      0.76334696	     -0.62882312	      1.04271098	      0.29350791	     25.64323660	      2.40170948	     -2.29040647	    -19.70014551	      2.37182407	     -5.37094019	      7.08100098	     -2.96401240	     -2.64730997	     -4.32108506	    -38.90613781	     13.40276755	     17.84428147	     16.03410159	     -5.30359246	      3.38234386	     -4.18317448
      0.62483333	     -3.37969312	     -1.22435320	      0.81780340	     -0.62277517	      1.04281006	      0.29400854	     25.53533947	      2.48639378	     -2.29930494	    -20.36432295	      2.56226186	     -5.42487713	      7.05302517	     -2.37147172	     -2.94142228	     -4.49011310	    -40.70870169	     12.37070317	     18.06565338	     16.06800808	     -5.34785451	      3.52250707	     -4.13333219
      0.62900000	     -3.30256750	     -1.30665271	      0.87441064	     -0.61675334	      1.04298946	      0.29448983	     25.38809615	      2.58745292	     -2.33217097	    -20.97015327	      2.79012682	     -5.44653195	      7.01707674	     -1.77047875	     -3.25644744	     -4.63495906	    -42.51061396	     11.29768368	     18.21013737	     16.09337155	     -5.40262980	      3.68313363	     -4.08394071
      0.63316667	     -3.23763507	     -1.38145819	      0.92883751	     -0.61077543	      1.04318453	      0.29495577	     25.23809576	      2.67744498	     -2.38400928	    -21.54346002	      3.07106033	     -5.43079895	      6.96828982	     -1.13845925	     -3.55556725	     -4.74383100	    -44.30603066	     10.20853193	     18.27012554	     16.10649179	     -5.44917397	      3.83833568	     -4.03342757
